<svg width="180" height="180" viewBox="0 0 180 180" fill="none" xmlns="http://www.w3.org/2000/svg">
<rect width="180" height="180" rx="38" fill="#E9CCA0"/>
<path d="M125.322 33.1948V57.0952H119.93C119.756 52.9887 118.891 48.9409 117.37 45.1222C115.26 40.3551 111.916 36.2377 107.682 33.1948H125.322Z" fill="black"/>
<path d="M48 146.939V123.039H53.3924C53.5664 127.146 54.4315 131.193 55.9516 135.012C58.062 139.779 61.4065 143.897 65.6397 146.939H48Z" fill="black"/>
<path d="M128.064 102.018C125.207 97.8238 121.706 94.107 117.691 91.0042C113.375 87.6869 108.789 84.7367 103.981 82.1843C99.0456 79.5338 94.4757 76.8376 90.2714 74.0957C86.456 71.5692 82.9976 68.5412 79.9892 65.093C77.1837 61.8688 75.6842 57.7126 75.785 53.4399C75.6788 51.013 76.116 48.593 77.0645 46.3566C79.909 40.2368 84.741 35.2598 90.7741 32.2357C89.9972 32.0072 89.129 32.0072 87.8037 32.0072C82.073 31.917 76.3603 32.6715 70.8495 34.2465C66.4017 35.4471 62.2277 37.4953 58.5566 40.2787C55.4782 42.5791 53.0011 45.5892 51.3362 49.0528C49.729 52.404 48.901 56.0754 48.9142 59.792C48.7512 65.5031 50.2089 71.1436 53.1184 76.0607C55.9367 80.5375 59.4544 84.5335 63.5377 87.8967C67.7951 91.3878 72.3873 94.4493 77.2473 97.0364C82.1828 99.6869 86.7526 102.337 90.9569 104.988C94.7715 107.357 98.2722 110.197 101.376 113.442C104.12 116.34 105.628 120.191 105.58 124.181C105.703 126.832 105.285 129.479 104.349 131.962C103.414 134.445 101.983 136.711 100.142 138.622C94.69 143.183 88.1052 146.183 81.086 147.305C83.6664 147.757 86.2808 147.986 88.9005 147.99C95.384 148.1 101.849 147.269 108.094 145.523C113.058 144.175 117.714 141.878 121.803 138.759C125.145 136.21 127.855 132.926 129.725 129.162C131.595 125.398 132.575 121.255 132.588 117.052C132.666 111.694 131.085 106.443 128.064 102.018V102.018Z" fill="black"/>
</svg>
