<svg width="192" height="69" viewBox="0 0 192 69" fill="none" xmlns="http://www.w3.org/2000/svg"><path d="M109.866 66.148c-1.515-.186-2.393-.532-2.659-1.037a9.408 9.408 0 01-.425-3.59V41.448a8.833 8.833 0 00-3.749-7.339 14.121 14.121 0 00-8.801-2.818c-4.999 0-7.445.85-9.094 2.818a10.954 10.954 0 00-1.967 4.201 10.636 10.636 0 00-4.6-5.318 14.571 14.571 0 00-7.286-1.755c-4.015 0-6.7.692-7.976 2.128a11.3 11.3 0 00-2.66 4.2v-5.583H42.543c1.25.824 2.473 1.675 3.617 2.659a28.078 28.078 0 015.823 6.647 14.944 14.944 0 012.446 8.695 15.423 15.423 0 01-1.569 6.86 21.431 21.431 0 01-10.848 10.423v.186h22.122v-1.197c-1.728-.133-2.659-.558-2.872-1.25a17.622 17.622 0 01-.239-3.456V38.894c.346-1.143 2.526-4.786 4.813-4.786 3.669 0 3.616 3.696 3.616 5.85v27.466H87.08v-1.196c-1.728-.133-2.659-.559-2.845-1.25a15.336 15.336 0 01-.266-3.456V39.958c.346-2.393 2.66-5.69 4.281-5.823 4.175-.24 4.175 3.669 4.175 5.823v27.466h19.011v-1.196l-1.569-.08zM44.989 1.218v13.906H41.85a21.271 21.271 0 00-1.489-6.966 17.044 17.044 0 00-5.637-6.94H44.99zM0 67.399V53.493h3.138a21.27 21.27 0 001.489 6.966 17.044 17.044 0 005.636 6.94H0z" fill="#fff"/><path d="M46.584 41.261a28.079 28.079 0 00-6.036-6.408 56.772 56.772 0 00-7.976-5.132 109.103 109.103 0 01-7.977-4.706 29.694 29.694 0 01-5.983-5.238 9.97 9.97 0 01-2.446-6.78 9.49 9.49 0 01.745-4.121A17.389 17.389 0 0124.887.66C24.435.527 23.93.527 23.16.527a33.955 33.955 0 00-9.864 1.303 20.82 20.82 0 00-7.153 3.51 13.88 13.88 0 00-4.201 5.104 14.331 14.331 0 00-1.41 6.249 17.602 17.602 0 002.447 9.466 28.795 28.795 0 006.062 6.886 48.58 48.58 0 007.977 5.318 132.67 132.67 0 017.977 4.627 31.08 31.08 0 016.062 4.918 8.934 8.934 0 012.446 6.249 11.354 11.354 0 01-3.164 8.402 22.92 22.92 0 01-11.088 5.052c1.502.263 3.023.396 4.547.399 3.773.064 7.534-.42 11.168-1.436a23.159 23.159 0 007.976-3.935 15.953 15.953 0 006.275-12.63 15.129 15.129 0 00-2.632-8.748zm98.593 14.412a16.439 16.439 0 01-4.095 6.461 9.866 9.866 0 01-7.232 2.659 8.587 8.587 0 01-5.318-1.595 10.31 10.31 0 01-3.244-4.175 20.444 20.444 0 01-1.569-5.318c0-.691-.159-1.356-.213-2.02a3.902 3.902 0 010-.612v-9.067a25.95 25.95 0 011.303-6.993 3.298 3.298 0 013.244-2.579 3.906 3.906 0 013.856 2.34 16.72 16.72 0 011.116 6.913v4.786h-5.929v1.489h19.144a16.669 16.669 0 00-4.573-11.885 17.119 17.119 0 00-13.295-4.84 20.687 20.687 0 00-14.039 5.212 16.907 16.907 0 00-5.876 13.294 16.927 16.927 0 005.876 13.508 21.457 21.457 0 0014.518 4.892 18.746 18.746 0 0010.928-3.164 18.027 18.027 0 006.754-8.774l-1.356-.532zm44.962 10.449c-1.436-.133-2.314-.505-2.659-1.063a9.203 9.203 0 01-.452-3.563V12.864h-20.181v1.197l2.659.16c1.595.159 2.481.531 2.659 1.116.238.868.381 1.76.425 2.659v49.403H192v-1.197l-1.861-.08zm-23.319 0c-1.462-.133-2.313-.505-2.659-1.063a8.694 8.694 0 01-.452-3.563V12.864h-20.128v1.197l2.659.16c1.595.159 2.499.531 2.659 1.116.237.87.389 1.76.452 2.659v49.402h19.383v-1.196l-1.914-.08z" fill="#fff"/></svg>