<svg width="146" height="52" viewBox="0 0 146 52" fill="none" xmlns="http://www.w3.org/2000/svg"><path d="M83.544 49.903c-1.152-.142-1.82-.404-2.022-.789a7.157 7.157 0 01-.323-2.73V31.12a6.713 6.713 0 00-2.851-5.58 10.736 10.736 0 00-6.693-2.144c-3.8 0-5.66.647-6.914 2.143a8.328 8.328 0 00-1.497 3.195 8.088 8.088 0 00-3.498-4.044 11.08 11.08 0 00-5.54-1.334c-3.053 0-5.095.525-6.065 1.617a8.593 8.593 0 00-2.022 3.195v-4.246H32.35c.95.627 1.88 1.274 2.75 2.022a21.35 21.35 0 014.428 5.054 11.363 11.363 0 011.86 6.612 11.727 11.727 0 01-1.193 5.216 16.296 16.296 0 01-8.25 7.926v.142h16.823v-.91c-1.315-.101-2.022-.425-2.184-.95a13.406 13.406 0 01-.182-2.629V29.18c.263-.87 1.92-3.64 3.66-3.64 2.79 0 2.75 2.81 2.75 4.448v20.886h13.405v-.91c-1.315-.1-2.022-.424-2.164-.95a11.667 11.667 0 01-.202-2.628V29.987c.263-1.82 2.022-4.326 3.255-4.427 3.175-.182 3.175 2.79 3.175 4.427v20.886h14.456v-.91l-1.193-.06zM34.21.528v10.575h-2.386a16.174 16.174 0 00-1.132-5.298A12.96 12.96 0 0026.406.528h7.804zM0 50.854V40.279h2.386c.077 1.817.46 3.608 1.132 5.298a12.96 12.96 0 004.286 5.277H0z" fill="#000"/><path d="M35.423 30.978a21.35 21.35 0 00-4.59-4.872 43.17 43.17 0 00-6.065-3.903 82.943 82.943 0 01-6.066-3.578 22.584 22.584 0 01-4.549-3.983 7.582 7.582 0 01-1.86-5.156 7.219 7.219 0 01.566-3.134A13.223 13.223 0 0118.925.104c-.344-.1-.728-.1-1.314-.1a25.82 25.82 0 00-7.502.99 15.831 15.831 0 00-5.438 2.669 10.554 10.554 0 00-3.195 3.882 10.898 10.898 0 00-1.072 4.751 13.385 13.385 0 001.86 7.198 21.898 21.898 0 004.61 5.237 36.948 36.948 0 006.066 4.044 100.869 100.869 0 016.066 3.518 23.642 23.642 0 014.61 3.74 6.794 6.794 0 011.86 4.752 8.633 8.633 0 01-2.406 6.389 17.43 17.43 0 01-8.432 3.841c1.142.2 2.299.302 3.458.303a29.66 29.66 0 008.492-1.091 17.611 17.611 0 006.065-2.993 12.13 12.13 0 004.772-9.604 11.505 11.505 0 00-2.002-6.652zm74.972 10.959a12.496 12.496 0 01-3.114 4.913 7.498 7.498 0 01-5.5 2.022 6.53 6.53 0 01-4.043-1.213 7.845 7.845 0 01-2.467-3.174 15.547 15.547 0 01-1.193-4.044c0-.526-.121-1.031-.162-1.537a2.82 2.82 0 010-.465v-6.895c.085-1.809.418-3.598.991-5.317a2.507 2.507 0 012.467-1.96 2.972 2.972 0 012.932 1.778c.65 1.673.94 3.465.849 5.257v3.64h-4.51v1.132h14.558a12.676 12.676 0 00-3.477-9.038 13.03 13.03 0 00-10.11-3.68 15.73 15.73 0 00-10.675 3.963 12.86 12.86 0 00-4.469 10.11 12.879 12.879 0 004.469 10.27 16.316 16.316 0 0011.04 3.72 14.253 14.253 0 008.309-2.405 13.709 13.709 0 005.136-6.672l-1.031-.405zm34.19 7.946c-1.092-.101-1.759-.384-2.022-.809a6.996 6.996 0 01-.344-2.709V9.385h-15.346v.91l2.022.12c1.213.122 1.887.405 2.022.85.181.66.29 1.338.323 2.022v37.567H146v-.91l-1.415-.061zm-17.732 0c-1.112-.101-1.759-.384-2.022-.809a6.614 6.614 0 01-.344-2.709V9.385h-15.305v.91l2.021.12c1.214.122 1.901.405 2.022.85.181.661.296 1.338.344 2.022v37.566h14.74v-.91l-1.456-.06z" fill="#000"/></svg>