<svg xmlns="http://www.w3.org/2000/svg" xmlns:xlink="http://www.w3.org/1999/xlink"><symbol id="icon-box" viewBox="0 0 56 62"><g fill="none">
<path d="M40.9294 23.5193L14.7883 8.44458" stroke="#B38758" stroke-width="3" stroke-linecap="round" stroke-linejoin="round"/>
<path d="M54 42.6895V19.4529C53.9989 18.4342 53.73 17.4337 53.2202 16.5517C52.7104 15.6698 51.9776 14.9374 51.0954 14.428L30.7634 2.80977C29.8803 2.29991 28.8786 2.03149 27.8589 2.03149C26.8392 2.03149 25.8374 2.29991 24.9543 2.80977L4.62234 14.428C3.74011 14.9374 3.00734 15.6698 2.49754 16.5517C1.98773 17.4337 1.71882 18.4342 1.71777 19.4529V42.6895C1.71882 43.7082 1.98773 44.7087 2.49754 45.5906C3.00734 46.4726 3.74011 47.205 4.62234 47.7144L24.9543 59.3326C25.8374 59.8425 26.8392 60.1109 27.8589 60.1109C28.8786 60.1109 29.8803 59.8425 30.7634 59.3326L51.0954 47.7144C51.9776 47.205 52.7104 46.4726 53.2202 45.5906C53.73 44.7087 53.9989 43.7082 54 42.6895Z" stroke="#B38758" stroke-width="3" stroke-linecap="round" stroke-linejoin="round"/>
<path d="M2.50208 16.4321L27.8589 31.1002L53.2158 16.4321" stroke="#B38758" stroke-width="3" stroke-linecap="round" stroke-linejoin="round"/>
<path d="M27.8589 60.3492V31.0712" stroke="#B38758" stroke-width="3" stroke-linecap="round" stroke-linejoin="round"/>
</g></symbol><symbol id="icon-close" viewBox="0 0 20 20"><path d="M.293 18.291a1 1 0 101.414 1.414L10 11.413l8.292 8.292a1 1 0 101.414-1.414l-8.292-8.292 8.292-8.292A1 1 0 1018.291.293L9.999 8.585 1.707.293A1 1 0 10.293 1.707L8.585 10 .293 18.291z"/></symbol><symbol id="icon-down" viewBox="0 0 17 10"><g fill="none">
<path fill-rule="evenodd" clip-rule="evenodd" d="M8.5 7.18328L2.52049 1.20377C2.11776 0.801042 1.46481 0.801042 1.06208 1.20377C0.659353 1.6065 0.659353 2.25945 1.06208 2.66218L7.77076 9.37085C7.82976 9.42985 7.89413 9.48021 7.9623 9.52192C8.35944 9.76497 8.88547 9.71463 9.22921 9.37088L15.9379 2.66221C16.3406 2.25948 16.3406 1.60653 15.9379 1.2038C15.5352 0.801072 14.8822 0.801072 14.4795 1.2038L8.5 7.18328Z" fill="white"/>
</g></symbol><symbol id="icon-drop" viewBox="0 0 50 60"><g fill="none">
<path d="M24.9856 2L41.2581 18.4069C44.4762 21.6495 46.6683 25.7815 47.5569 30.2803C48.4456 34.7791 47.991 39.4426 46.2507 43.6809C44.5103 47.9192 41.5623 51.5419 37.7797 54.0907C33.997 56.6396 29.5496 58 25 58C20.4504 58 16.003 56.6396 12.2203 54.0907C8.43767 51.5419 5.48971 47.9192 3.74934 43.6809C2.00897 39.4426 1.55437 34.7791 2.44305 30.2803C3.33173 25.7815 5.52377 21.6495 8.74188 18.4069L24.9856 2Z" stroke="#B38758" stroke-width="3" stroke-linecap="round" stroke-linejoin="round"/>
</g></symbol><symbol id="icon-female" viewBox="0 0 56 56">
<path d="M39.8129 20.7222C39.4156 18.3544 38.2622 16.1741 36.5209 14.4995C35.0377 12.9954 33.1614 11.9266 31.1002 11.4117C30.6247 11.2961 30.1272 11.2059 29.6371 11.1192L28.9897 11H27.0145L26.6707 11.0542C26.4146 11.0939 26.1622 11.1336 25.9099 11.1806C23.6326 11.5564 21.5208 12.5951 19.8454 14.1637C16.7326 17.0998 15.5037 20.7222 16.1803 24.9259C16.5765 27.3076 17.7294 29.5032 19.4723 31.1955C20.9661 32.7106 22.8546 33.7892 24.9296 34.3122C25.2954 34.4097 25.705 34.4892 26.0854 34.5686L26.6158 34.6806L26.8316 34.7276V39.2275H25.2954C24.6955 39.2275 24.0773 39.2275 23.4665 39.2672C23.2431 39.2818 23.0307 39.3686 22.8622 39.5141C22.6936 39.6597 22.5782 39.8559 22.5338 40.0726C22.4607 40.2857 22.4567 40.516 22.5222 40.7315C22.5878 40.9471 22.7197 41.1371 22.8996 41.2752C23.1617 41.4781 23.4886 41.5818 23.8213 41.5677H26.828V43.294C26.828 44.1126 26.828 44.9349 26.828 45.7607C26.8148 45.9181 26.8348 46.0765 26.8868 46.226C26.9387 46.3754 27.0213 46.5126 27.1295 46.629C27.2378 46.7453 27.3692 46.8383 27.5156 46.9021C27.662 46.9658 27.8201 46.999 27.9801 46.9994C28.1316 47.0042 28.2826 46.9789 28.424 46.9249C28.5653 46.8709 28.6943 46.7894 28.8031 46.6852C28.9228 46.5625 29.0167 46.4177 29.0794 46.259C29.1422 46.1003 29.1726 45.931 29.1689 45.7607V41.5677H30.5479C31.1258 41.5677 31.7 41.5677 32.278 41.5677C32.5847 41.5797 32.8842 41.4734 33.1129 41.2711C33.3417 41.0689 33.4817 40.7867 33.5033 40.4843C33.518 40.3285 33.4997 40.1714 33.4498 40.0229C33.3998 39.8744 33.3191 39.7378 33.2128 39.6217C33.1066 39.5056 32.9771 39.4125 32.8325 39.3484C32.688 39.2843 32.5315 39.2505 32.3731 39.2491C32.1684 39.2381 31.9632 39.2381 31.7586 39.2491H29.1982V34.7131L29.5127 34.6409C29.5933 34.6181 29.6751 34.6 29.7578 34.5867C31.7604 34.3335 33.6563 33.5498 35.2444 32.3187C39.0447 29.3392 40.5663 25.446 39.8129 20.7222ZM28.0277 32.3909H27.7534C26.486 32.3523 25.2387 32.0675 24.0828 31.5529C22.9269 31.0383 21.8849 30.304 21.0165 29.3918C19.2625 27.5496 18.3215 25.0949 18.4006 22.5676C18.4796 20.0404 19.5722 17.6477 21.438 15.9159C23.3038 14.184 25.79 13.255 28.3496 13.333C30.9085 13.429 33.3247 14.5224 35.0688 16.3738C36.8129 18.2251 37.7428 20.6835 37.6548 23.2105C37.4061 28.9455 32.5194 32.3909 28.0277 32.3909Z"/>
</symbol><symbol id="icon-fruits" viewBox="0 0 47 45">
<path d="M46.7552 26.1841C46.507 27.9801 45.9213 29.682 45.2383 31.3482C44.2453 33.8352 42.8169 36.1251 41.02 38.1105C38.2116 41.1687 34.7769 43.1189 30.6916 43.8717C26.5318 44.6359 22.5796 44.0713 18.6647 42.5543C18.3061 42.4148 17.9914 42.3207 17.9914 42.3207C17.9914 42.3207 17.5257 42.5316 17.2661 42.6679C12.6228 45.1226 6.57439 44.4525 3.00507 40.4598C0.818053 38.0099 -0.239763 35.135 0.0457822 31.8772C0.438408 27.4642 2.71628 24.268 6.6977 22.3162C7.78634 21.7932 8.95913 21.4675 10.1616 21.3541C10.2711 21.3414 10.374 21.2948 10.456 21.221C10.5379 21.1472 10.5949 21.0497 10.6191 20.9421C10.6824 20.7133 10.7537 20.3888 10.7813 20.2671C9.92307 19.9264 9.05021 19.6831 8.27793 19.2547C6.30507 18.158 5.23752 15.4388 5.91732 13.307C5.98013 13.1491 6.07564 13.0064 6.19755 12.8881C6.31947 12.7698 6.46504 12.6787 6.62469 12.6207C9.3682 11.8468 12.3291 13.5162 13.1322 16.2484C13.1793 16.4106 13.2377 16.5583 13.2945 16.7254C13.6838 16.5631 14.0375 16.3895 14.4058 16.2565C15.0418 16.0261 15.561 16.2192 15.7492 16.7303C15.9374 17.2413 15.694 17.7443 15.0661 17.9795C13.5411 18.5506 12.7737 19.7106 12.4589 21.2471C13.2247 21.419 13.9661 21.5716 14.7043 21.7533C15.0564 21.8376 15.6908 22.0112 15.6908 22.0112C15.6908 22.0112 16.1515 21.4369 16.3949 21.1676C17.026 20.4764 17.675 19.8015 18.3239 19.1314C18.6095 18.8362 18.9194 18.5587 19.2325 18.291C20.2173 17.4474 20.6505 16.3798 20.7706 15.0884C20.9766 12.8884 21.4828 10.7533 22.6769 8.84368C23.8937 6.89678 25.6167 5.78704 27.9449 5.69943C28.014 5.6934 28.0828 5.68365 28.1509 5.67023C28.3424 4.49235 28.748 3.39884 29.5105 2.47244C30.1441 1.66322 31 1.05651 31.9734 0.726718C32.6321 0.510936 33.1091 0.68129 33.3102 1.21344C33.5114 1.7456 33.2583 2.19987 32.6239 2.45459C31.1102 3.06625 30.2163 4.23925 30.0281 5.88439C30.4921 6.08232 30.9723 6.26403 31.4315 6.48793C32.9565 7.2245 33.8651 8.49648 34.4054 10.0475C34.9846 11.7348 35.0787 13.4854 34.9002 15.2522C34.8207 16.0407 34.7039 16.826 34.6098 17.6129C34.4895 18.3899 34.6359 19.1848 35.0251 19.868C35.6579 20.9404 36.2955 22.0112 37.0191 23.2297C37.5318 22.0047 38.0201 20.9096 38.4452 19.7901C38.6577 19.2336 38.8378 18.7323 39.456 18.4662C39.6571 18.3786 39.7804 17.9682 39.821 17.6891C39.9248 17.0401 39.9216 16.3766 40.0384 15.7325C40.0903 15.3784 40.2488 15.0485 40.4927 14.7866C40.9014 14.4177 41.3822 14.1376 41.9047 13.9639C42.4272 13.7902 42.98 13.7267 43.5282 13.7775C44.002 13.8115 44.2891 14.1117 44.4124 14.626C44.5503 15.2036 44.6315 15.8087 44.87 16.3425C45.1393 16.946 45.4492 17.608 45.9327 18.0217C46.7065 18.6853 46.8234 19.5127 46.8931 20.3953C46.9872 21.5975 47.13 24.1934 46.7552 26.1841ZM42.5986 15.739C41.9788 15.8395 41.8847 15.9207 41.8052 16.5648C41.7468 17.0353 41.7209 17.509 41.656 17.9779C41.5456 18.7696 41.2796 19.4786 40.6046 19.9881C40.4013 20.1374 40.2426 20.3393 40.1455 20.5721C38.9192 24.011 36.9153 27.1203 34.2902 29.6577C30.6852 33.1686 26.4393 35.4043 21.4195 36.0971C18.9511 36.4596 16.4368 36.3595 14.0051 35.8018C13.3918 35.6574 13.0154 35.8229 12.7071 36.3128C12.6357 36.4264 12.5595 36.5367 12.4832 36.6536C14.7518 38.5068 17.3085 39.9761 20.0518 41.0033C23.5627 42.2898 27.1548 42.7409 30.849 41.954C33.7647 41.344 36.4552 39.9403 38.6236 37.898C40.2714 36.3417 41.6401 34.5143 42.67 32.4953C44.6225 28.8498 45.4523 24.7079 45.0549 20.5916C45.003 20.0367 44.9008 19.5273 44.4173 19.146C44.1694 18.9399 43.969 18.6825 43.83 18.3916C43.4017 17.5252 43.0139 16.6394 42.5986 15.739ZM22.8489 33.9393L23.1133 33.8857L23.3356 33.8322C28.0406 32.5829 31.8582 29.9627 34.9148 26.2068C35.9029 24.9932 35.8883 24.9754 35.0916 23.6207C34.5481 22.7008 33.956 21.81 33.4368 20.8755C32.877 19.8567 32.5769 18.7664 32.7505 17.5772C32.989 15.9158 33.247 14.2528 33.0506 12.5606C32.8981 11.2335 32.5915 9.96477 31.6586 8.954C29.5965 6.72318 25.8552 7.15799 24.2474 9.79928C23.1815 11.5499 22.7694 13.4984 22.5812 15.4988C22.4449 16.9412 21.9614 18.1985 20.9231 19.219C20.3893 19.7431 19.815 20.2298 19.3006 20.7668C18.6517 21.4434 18.0238 22.1524 17.344 22.8987C19.3023 24.1317 20.7511 25.6957 21.7375 27.6654C22.7164 29.602 23.1029 31.7842 22.8489 33.9393ZM17.3505 34.5152C17.4008 33.6651 17.5127 32.9366 17.4641 32.2195C17.417 31.5705 17.185 30.9459 17.0374 30.3099C16.9971 30.1695 16.9919 30.0214 17.0222 29.8786C17.0524 29.7357 17.1171 29.6024 17.2108 29.4904C17.3044 29.3783 17.4241 29.2909 17.5593 29.2358C17.6945 29.1807 17.8412 29.1595 17.9865 29.1742C18.4456 29.205 18.6793 29.4987 18.835 29.8946C19.394 31.3419 19.5147 32.9218 19.1822 34.4373L20.8857 34.301C21.6337 30.662 19.8328 25.9959 15.3452 23.9452C11.1853 22.0518 5.9741 23.5541 3.45286 27.4236C0.779115 31.5283 1.48 36.7314 5.18236 39.9974C8.56997 42.9875 13.3042 42.8041 15.8903 41.172C15.6827 41.0519 15.4766 40.953 15.29 40.8248C13.8299 39.8075 12.3518 38.7984 10.9095 37.7584C10.3595 37.3642 10.3092 37.0364 10.5509 36.4005C10.9046 35.4757 11.5244 34.7553 12.2804 34.1291C12.7136 33.777 13.1517 33.7202 13.6871 33.8322C14.839 34.0836 16.012 34.2718 17.3505 34.5152ZM7.64032 14.3502C7.39534 16.3133 9.01613 18.0363 10.658 18.1969C10.9205 18.2149 11.184 18.2149 11.4465 18.1969C11.4804 17.9605 11.4972 17.7219 11.4968 17.4831C11.4546 15.6595 9.72513 14.0808 7.64032 14.3502Z"/>
<path d="M26.7735 40.2228C26.568 40.2161 26.3636 40.1889 26.1635 40.1417C25.9644 40.0796 25.7931 39.9503 25.6789 39.7758C25.5647 39.6013 25.5147 39.3925 25.5375 39.1852C25.5604 38.9779 25.6545 38.785 25.804 38.6396C25.9534 38.4941 26.1487 38.4051 26.3565 38.3878C28.4041 38.2901 30.4092 37.7697 32.2459 36.8595C32.8073 36.5853 33.3524 36.7817 33.5731 37.2619C33.7937 37.7421 33.6136 38.2353 33.0993 38.4917C31.1352 39.5052 28.9801 40.095 26.7735 40.2228Z"/>
<path d="M35.8461 36.3065C35.8332 36.5518 35.7268 36.7829 35.5487 36.9522C35.3707 37.1215 35.1345 37.2162 34.8888 37.2167C34.7667 37.2137 34.6463 37.1866 34.5348 37.1367C34.4232 37.0868 34.3227 37.0153 34.2391 36.9262C34.1554 36.8371 34.0903 36.7323 34.0476 36.6178C34.0048 36.5034 33.9853 36.3815 33.99 36.2594C34.0092 36.0227 34.1143 35.8011 34.2856 35.6364C34.4568 35.4718 34.6823 35.3754 34.9197 35.3655C35.1655 35.373 35.399 35.475 35.5715 35.6502C35.7441 35.8255 35.8424 36.0606 35.8461 36.3065Z"/>
<path d="M31.4412 13.6152C31.4175 14.7313 31.3287 15.8451 31.1751 16.9509C31.094 17.5658 30.6349 17.9033 30.0946 17.8205C29.5544 17.7378 29.2964 17.3062 29.3369 16.6978C29.4213 15.4356 29.5316 14.1749 29.5462 12.9127C29.556 12.1615 29.384 11.4347 28.6393 10.9804C28.2856 10.7679 28.2386 10.2308 28.4446 9.86741C28.5399 9.68322 28.6979 9.53916 28.8901 9.46122C29.0823 9.38327 29.296 9.37658 29.4927 9.44234C30.3574 9.71977 30.8328 10.4158 31.1508 11.2108C31.5029 12.0869 31.451 12.8575 31.4412 13.6152Z"/>
<path d="M16.3965 26.8883C16.6413 26.8903 16.8759 26.9867 17.0512 27.1576C17.2266 27.3284 17.3291 27.5603 17.3375 27.805C17.3384 27.9265 17.3152 28.047 17.2694 28.1595C17.2236 28.2721 17.156 28.3745 17.0706 28.4608C16.9851 28.5472 16.8834 28.6158 16.7714 28.6628C16.6593 28.7098 16.5391 28.7342 16.4176 28.7347C16.1728 28.7326 15.9384 28.6352 15.7642 28.4631C15.59 28.2911 15.4898 28.0579 15.4847 27.8131C15.4807 27.6917 15.5015 27.5707 15.5457 27.4576C15.59 27.3444 15.6568 27.2415 15.7421 27.155C15.8274 27.0685 15.9294 27.0002 16.0419 26.9544C16.1544 26.9085 16.275 26.8861 16.3965 26.8883Z"/>
</symbol><symbol id="icon-heart" viewBox="0 0 60 51"><g fill="none">
<path d="M53.6819 6.15514C52.3135 4.83784 50.6889 3.79286 48.9008 3.07991C47.1126 2.36696 45.196 2 43.2605 2C41.3249 2 39.4083 2.36696 37.6202 3.07991C35.832 3.79286 34.2074 4.83784 32.8391 6.15514L29.9993 8.88773L27.1595 6.15514C24.3956 3.49553 20.6469 2.00138 16.7381 2.00138C12.8293 2.00138 9.08062 3.49553 6.31669 6.15514C3.55276 8.81475 2 12.422 2 16.1832C2 19.9445 3.55276 23.5517 6.31669 26.2113L9.15646 28.9439L29.9993 49L50.8421 28.9439L53.6819 26.2113C55.0508 24.8946 56.1368 23.3313 56.8777 21.6106C57.6186 19.89 58 18.0457 58 16.1832C58 14.3207 57.6186 12.4764 56.8777 10.7558C56.1368 9.03514 55.0508 7.47182 53.6819 6.15514V6.15514Z" stroke="#B38758" stroke-width="3" stroke-linecap="round" stroke-linejoin="round"/>
</g></symbol><symbol id="icon-inst" viewBox="0 0 169.063 169.063"><g style="enable-background:new 0 0 169.063 169.063;">
  <g>
    <path d="M122.406,0H46.654C20.929,0,0,20.93,0,46.655v75.752c0,25.726,20.929,46.655,46.654,46.655h75.752
                            c25.727,0,46.656-20.93,46.656-46.655V46.655C169.063,20.93,148.133,0,122.406,0z M154.063,122.407
                            c0,17.455-14.201,31.655-31.656,31.655H46.654C29.2,154.063,15,139.862,15,122.407V46.655C15,29.201,29.2,15,46.654,15h75.752
                            c17.455,0,31.656,14.201,31.656,31.655V122.407z"/>
    <path d="M84.531,40.97c-24.021,0-43.563,19.542-43.563,43.563c0,24.02,19.542,43.561,43.563,43.561s43.563-19.541,43.563-43.561
                            C128.094,60.512,108.552,40.97,84.531,40.97z M84.531,113.093c-15.749,0-28.563-12.812-28.563-28.561
                            c0-15.75,12.813-28.563,28.563-28.563s28.563,12.813,28.563,28.563C113.094,100.281,100.28,113.093,84.531,113.093z"/>
    <path d="M129.921,28.251c-2.89,0-5.729,1.17-7.77,3.22c-2.051,2.04-3.23,4.88-3.23,7.78c0,2.891,1.18,5.73,3.23,7.78
                            c2.04,2.04,4.88,3.22,7.77,3.22c2.9,0,5.73-1.18,7.78-3.22c2.05-2.05,3.22-4.89,3.22-7.78c0-2.9-1.17-5.74-3.22-7.78
                            C135.661,29.421,132.821,28.251,129.921,28.251z"/>
  </g>
</g></symbol><symbol id="icon-left" viewBox="0 0 22 38"><g fill="none">
<path fill-rule="evenodd" clip-rule="evenodd" d="M0.447415 17.6244C-0.193289 18.5948 -0.0865049 19.9135 0.767767 20.7678L17.0312 37.0312C18.0075 38.0075 19.5904 38.0075 20.5668 37.0312C21.5431 36.0549 21.5431 34.472 20.5668 33.4957L6.07107 19L20.5668 4.50431C21.5431 3.528 21.5431 1.94509 20.5668 0.968777C19.5904 -0.00753327 18.0075 -0.00753242 17.0312 0.968777L0.767767 17.2322C0.645728 17.3543 0.538944 17.4858 0.447415 17.6244Z" fill="white"/>
</g></symbol><symbol id="icon-left2" viewBox="0 0 50 50"><g stroke="#000" stroke-width="2px" style="enable-background:new 0 0 50 50;">
	<path d="M11.003,40.094c-1.338,1.352-1.338,3.541,0,4.893c1.336,1.35,3.506,1.352,4.844,0l19.15-19.539
		c1.338-1.352,1.338-3.543,0-5.895L15.847,2.014c-1.338-1.352-3.506-1.352-4.844,0s-1.338,3.541-0.002,4.893L26.706,23
		L11.003,40.094z"/>
</g></symbol><symbol id="icon-male" viewBox="0 0 56 56">
<path d="M40.6657 24.2661C40.6528 24.5021 40.7113 24.7365 40.8334 24.9389C40.9555 25.1412 41.1357 25.3022 41.3505 25.4009C41.5653 25.4996 41.8048 25.5315 42.038 25.4924C42.2711 25.4533 42.4872 25.345 42.658 25.1816C42.77 25.065 42.8579 24.9274 42.9165 24.7768C42.9752 24.6261 43.0035 24.4653 42.9997 24.3037C42.9997 21.499 42.9997 18.4655 42.9997 15.0356C42.9995 14.7954 42.9148 14.5629 42.7606 14.3787C42.6063 14.1945 42.3922 14.0703 42.1556 14.0279C42.0433 14.0035 41.9288 13.9898 41.8139 13.9869H32.8229C32.557 13.9665 32.2919 14.0363 32.0705 14.185C31.8491 14.3338 31.6844 14.5528 31.6029 14.8068C31.5494 14.9787 31.5364 15.1606 31.5649 15.3384C31.5933 15.5162 31.6625 15.685 31.767 15.8316C31.884 15.9832 32.0349 16.1054 32.2075 16.1885C32.3802 16.2715 32.5698 16.3131 32.7614 16.3099C33.8413 16.3099 34.9177 16.3099 35.9976 16.3099H38.957L31.7123 23.5487L31.3706 23.2925C29.398 21.8371 27.0115 21.0506 24.5598 21.0481C22.8409 21.0431 21.1422 21.4178 19.585 22.1454C18.0277 22.8729 16.6505 23.9354 15.5518 25.2568C11.9772 29.7251 12.1549 36.1885 15.9618 40.2571C17.8438 42.3227 20.4123 43.6346 23.1895 43.9488C25.9666 44.263 28.7634 43.5581 31.0596 41.9652C33.3393 40.4199 34.96 38.0798 35.6046 35.4028C36.0537 33.7373 36.1154 31.9912 35.7849 30.2982C35.4543 28.6052 34.7404 27.0104 33.6978 25.636L33.4449 25.2944L40.6657 18.0384V20.9798C40.6657 22.0775 40.6657 23.1729 40.6657 24.2661ZM33.7661 32.564C33.7544 34.9965 32.7797 37.3254 31.0552 39.0417C29.3307 40.7579 26.9966 41.7218 24.5632 41.7227H24.5325C23.2855 41.7794 22.04 41.5825 20.8713 41.1441C19.7026 40.7056 18.6351 40.0347 17.7333 39.1719C16.8316 38.309 16.1143 37.2722 15.625 36.1243C15.1357 34.9763 14.8845 33.741 14.8865 32.4932C14.8886 31.2453 15.144 30.0109 15.6371 28.8646C16.1303 27.7182 16.851 26.6839 17.7556 25.824C18.6603 24.9642 19.73 24.2968 20.9002 23.8623C22.0703 23.4277 23.3165 23.2351 24.5632 23.2959C25.7762 23.2954 26.977 23.5369 28.0955 24.0062C29.2139 24.4754 30.2274 25.1631 31.0767 26.0288C31.9326 26.888 32.6108 27.9074 33.0723 29.0287C33.5337 30.1501 33.7695 31.3514 33.7661 32.564Z"/>
</symbol><symbol id="icon-parfum" viewBox="0 0 49 60">
<rect x="5.08246" y="30.0176" width="2.34574" height="4.69148" rx="1.17287"/>
<rect x="5.08246" y="37.8367" width="2.34574" height="4.69148" rx="1.17287"/>
<rect y="37.4458" width="2.34574" height="4.69148" rx="1.17287" transform="rotate(-90 0 37.4458)"/>
<rect x="7.81915" y="37.4458" width="2.34574" height="4.69148" rx="1.17287" transform="rotate(-90 7.81915 37.4458)"/>
<rect x="9.44812" y="8.12402" width="1.95478" height="3.90957" rx="0.977392"/>
<rect x="9.44812" y="14.6399" width="1.95478" height="3.90957" rx="0.977392"/>
<rect x="5.21277" y="14.3142" width="1.95478" height="3.90957" rx="0.977392" transform="rotate(-90 5.21277 14.3142)"/>
<rect x="11.7287" y="14.3142" width="1.95478" height="3.90957" rx="0.977392" transform="rotate(-90 11.7287 14.3142)"/>
<path d="M35.5952 38.4216H19.9987C18.7421 38.4216 17.7234 39.4403 17.7234 40.697V56.0698C17.7234 57.3265 18.7421 58.3452 19.9987 58.3452H35.5952C36.8518 58.3452 37.8705 57.3265 37.8705 56.0698V40.697C37.8705 39.4403 36.8518 38.4216 35.5952 38.4216Z" stroke-width="1.75" stroke-miterlimit="10"/>
<path d="M31.8504 42.5283H23.4049C22.5703 42.5283 21.8936 43.235 21.8936 44.1067V52.418C21.8936 53.2897 22.5703 53.9964 23.4049 53.9964H31.8504C32.685 53.9964 33.3617 53.2897 33.3617 52.418V44.1067C33.3617 43.235 32.685 42.5283 31.8504 42.5283Z" stroke-width="1.5" stroke-miterlimit="10"/>
<path d="M33.3617 52.3863V46.6985C31.5032 46.9475 29.6801 47.4358 27.9323 48.1529C26.1448 48.9051 23.6974 48.6129 21.8936 48.2117V52.3863C21.8936 52.813 22.0528 53.2223 22.3362 53.5242C22.6195 53.8261 23.004 53.9959 23.4049 53.9963H31.8553C32.2555 53.995 32.6389 53.8247 32.9213 53.5228C33.2037 53.221 33.3621 52.8123 33.3617 52.3863V52.3863Z" stroke-width="1.5" stroke-miterlimit="10"/>
<path d="M34.2099 20.6348H22.0878C21.4048 20.6348 20.851 21.2014 20.851 21.9004V37.0925C20.851 37.7915 21.4048 38.3581 22.0878 38.3581H34.2099C34.893 38.3581 35.4467 37.7915 35.4467 37.0925V21.9004C35.4467 21.2014 34.893 20.6348 34.2099 20.6348Z" stroke-width="1.75" stroke-miterlimit="10"/>
<path d="M29.2667 12.2159C30.8418 12.2159 32.1186 10.9391 32.1186 9.36407C32.1186 7.78903 30.8418 6.51221 29.2667 6.51221C27.6917 6.51221 26.4149 7.78903 26.4149 9.36407C26.4149 10.9391 27.6917 12.2159 29.2667 12.2159Z" stroke-width="1.75" stroke-linecap="round" stroke-linejoin="round"/>
<path d="M28.0855 12.7665C28.0735 12.7623 28.0615 12.7581 28.0496 12.7538C26.7094 13.8307 25.2645 14.7712 23.7365 15.561L23.7239 15.5674L23.7239 15.5673C20.3837 17.2149 18.7851 19.0397 18.523 20.8794L28.0855 12.7665ZM28.0855 12.7665C26.735 13.8526 25.2798 14.8027 23.7409 15.6025C22.2529 16.3403 21.0447 17.1459 20.1669 18.012C19.2882 18.879 18.7056 19.8429 18.557 20.8873L18.557 20.8875C18.3752 22.1676 18.8659 23.2437 19.3124 23.9228V23.9801C19.2535 23.8911 19.1943 23.7964 19.1361 23.6962C18.7112 22.9652 18.3647 21.9918 18.523 20.8795L28.0855 12.7665ZM36.2795 24.2953V24.253C37.1152 23.6076 37.6554 22.8166 37.7389 21.8394C37.8251 20.8411 37.4077 19.8371 36.8676 18.9866C36.3168 18.1192 35.5753 17.3123 34.8578 16.6782L34.8549 16.6756C33.8111 15.7628 31.5964 13.9413 30.2421 12.8307C30.2541 12.8273 30.2662 12.8238 30.2782 12.8203C31.6414 13.9304 33.8293 15.7271 34.8798 16.6517C35.3641 17.0797 36.1526 17.8473 36.7891 18.7947C37.4326 19.7527 37.862 20.8068 37.7744 21.8346L37.7743 21.8352C37.6984 22.7341 37.2381 23.5626 36.2795 24.2953Z" stroke-width="1.5" stroke-miterlimit="10"/>
<path d="M43.8061 39.2461L43.7985 39.2659C43.7971 39.2696 43.7972 39.2738 43.7988 39.2774C43.8004 39.2811 43.8034 39.2839 43.8071 39.2853L43.8125 39.2874C43.8154 39.287 43.8182 39.2859 43.8207 39.2842L44.2458 39.9021L43.8207 39.2842C43.8237 39.2821 43.8261 39.2792 43.8275 39.2759C43.8276 39.2756 43.8277 39.2754 43.8278 39.2752L43.8296 39.2703C43.9959 38.8283 45.7622 34.1336 47.0119 28.4516C47.642 25.5865 48.1363 22.4898 48.2328 19.5723C48.3297 16.644 48.0231 13.9605 47.1038 11.8819L43.8061 39.2461ZM43.8061 39.2461L43.8126 39.2259M43.8061 39.2461L43.8126 39.2259M43.8126 39.2259C43.8107 39.2319 43.8299 39.1801 43.8908 39.0123C43.9445 38.8642 44.0209 38.6518 44.1156 38.382C44.3051 37.8425 44.5679 37.0738 44.8698 36.1309C45.4732 34.2463 46.2344 31.6608 46.8781 28.8154C47.5213 25.973 48.0514 22.8532 48.185 19.9042C48.318 16.97 48.0626 14.1299 47.0732 11.8923C46.7334 11.115 46.3281 10.3682 45.8615 9.65995C45.8553 9.62948 45.849 9.59904 45.8425 9.56862M43.8126 39.2259L45.8425 9.56862M45.8425 9.56862C46.3037 10.2558 46.7248 11.0261 47.1037 11.8816L45.8425 9.56862Z" stroke-width="1.5" stroke-miterlimit="10"/>
<path d="M40.7591 5.63639C38.6285 4.96769 36.4691 5.16793 34.7496 5.5795C33.4202 5.89772 32.3194 6.35045 31.6437 6.6661C31.6337 6.65734 31.6237 6.64865 31.6137 6.64001C32.2511 6.33834 33.267 5.91463 34.5027 5.59831C36.3122 5.13512 38.5378 4.9161 40.7253 5.59161C40.7366 5.60651 40.7479 5.62143 40.7591 5.63639Z" stroke-width="1.5" stroke-miterlimit="10"/>
<path d="M43.8194 8.04067L43.8194 8.04059C42.497 4.76949 40.8 3.14753 39.2967 2.34738C37.7833 1.5418 36.3819 1.5245 35.5869 1.61105C32.9803 1.89718 30.6737 3.73122 29.9387 5.82527C29.9511 5.82762 29.9635 5.83004 29.9758 5.83252C30.316 4.85268 30.9882 3.97008 31.817 3.2783C32.8516 2.41474 34.187 1.79893 35.5905 1.64561L35.5909 1.64556C36.609 1.53492 38.0686 1.62523 39.5874 2.53499C41.1059 3.44464 42.6044 5.12607 43.7874 8.05267L43.8194 8.04067ZM43.8194 8.04067C44.9183 10.7584 44.9235 14.3825 44.3944 18.2633C43.8679 22.1245 42.8317 26.1201 41.9454 29.5371C41.2573 32.1763 40.64 34.5514 40.4658 36.1521L43.8194 8.04067ZM41.9109 29.5287L41.9109 29.5287C41.1971 32.2779 40.6077 34.5728 40.4287 36.1406C39.8212 41.6126 40.8337 47.5434 40.8763 47.7905L41.9109 29.5287ZM41.9109 29.5287L41.9142 29.5159M41.9109 29.5287L41.9142 29.5159M41.9142 29.5159C42.7699 26.2201 43.796 22.2675 44.3344 18.4654M41.9142 29.5159L44.3344 18.4654M44.3344 18.4654C44.8701 14.6828 44.9451 10.916 43.7874 8.05276L44.3344 18.4654ZM29.1385 6.51893C29.1829 6.5156 29.2279 6.51223 29.2733 6.51223L29.0103 6.52538C29.0525 6.52538 29.0953 6.52217 29.1385 6.51893ZM40.8972 47.8014L40.8893 47.8028L40.9094 47.7842C40.9095 47.7844 40.9095 47.7847 40.9095 47.7849C40.9099 47.7886 40.909 47.7923 40.9068 47.7953C40.9045 47.7985 40.9011 47.8007 40.8972 47.8014Z" stroke-width="1.5" stroke-miterlimit="10"/>
</symbol><symbol id="icon-phone" viewBox="0 0 90 90">
<path d="M38.789,51.211l10.876,10.876c0.974,0.974,2.471,1.194,3.684,0.543l13.034-6.997c0.964-0.518,2.129-0.493,3.07,0.066
	l19.017,11.285c1.357,0.805,1.903,2.489,1.268,3.933c-1.625,3.698-4.583,10.476-5.758,13.473c-0.247,0.631-0.615,1.209-1.127,1.652
	c-12.674,10.986-37.89-2.4-57.191-21.701C6.358,45.039-7.028,19.823,3.958,7.149c0.444-0.512,1.022-0.88,1.652-1.127
	c2.996-1.175,9.775-4.133,13.473-5.758c1.444-0.635,3.128-0.089,3.933,1.268l11.285,19.017c0.558,0.941,0.583,2.106,0.066,3.07
	L27.37,36.651c-0.651,1.213-0.431,2.71,0.543,3.684C27.913,40.335,38.789,51.211,38.789,51.211z"/>
<path d="M90,49.5h-9C81,27.168,62.832,9,40.5,9V0C67.794,0,90,22.206,90,49.5z"/>
<path d="M72.5,49.5h-9c0-12.682-10.317-23-23-23v-9C58.145,17.5,72.5,31.855,72.5,49.5z"/>
<g>
</g>
<g>
</g>
<g>
</g>
<g>
</g>
<g>
</g>
<g>
</g>
</symbol><symbol id="icon-right" viewBox="0 0 22 38"><g fill="none">
<path fill-rule="evenodd" clip-rule="evenodd" d="M21.1506 20.3756C21.7913 19.4052 21.6845 18.0865 20.8303 17.2322L4.5668 0.968777C3.59049 -0.00753377 2.00758 -0.00753327 1.03127 0.968777C0.0549553 1.94509 0.0549562 3.528 1.03127 4.50431L15.527 19L1.03127 33.4957C0.0549548 34.472 0.0549553 36.0549 1.03127 37.0312C2.00758 38.0075 3.59049 38.0075 4.5668 37.0312L20.8303 20.7678C20.9523 20.6457 21.0591 20.5142 21.1506 20.3756Z" fill="white"/>
</g></symbol><symbol id="icon-thumb" viewBox="0 0 60 61"><g fill="none">
<path d="M16.2257 58.9996H7.69029C6.18113 58.9996 4.73378 58.3991 3.66665 57.3302C2.59951 56.2612 2 54.8114 2 53.2997V33.3498C2 31.8381 2.59951 30.3883 3.66665 29.3193C4.73378 28.2504 6.18113 27.6498 7.69029 27.6498H16.2257M36.1417 21.9499V10.5499C36.1417 8.28236 35.2425 6.10765 33.6418 4.50422C32.0411 2.9008 29.87 2 27.6063 2L16.2257 27.6498V58.9996H48.319C49.6913 59.0152 51.0229 58.5334 52.0686 57.6431C53.1143 56.7527 53.8035 55.5138 54.0093 54.1547L57.9356 28.5048C58.0593 27.6879 58.0043 26.8538 57.7744 26.0603C57.5444 25.2667 57.1449 24.5328 56.6036 23.9093C56.0624 23.2858 55.3922 22.7876 54.6397 22.4492C53.8871 22.1109 53.0701 21.9405 52.2453 21.9499H36.1417Z" stroke="#B38758" stroke-width="3" stroke-linecap="round" stroke-linejoin="round"/>
</g></symbol><symbol id="icon-tree" viewBox="0 0 52 52">
<rect x="45.4688" y="21" width="2.0625" height="4.125" rx="1"/>
<rect x="45.4688" y="27.875" width="2.0625" height="4.125" rx="1"/>
<rect x="41" y="27.5312" width="2.0625" height="4.125" rx="1" transform="rotate(-90 41 27.5312)"/>
<rect x="47.875" y="27.5312" width="2.0625" height="4.125" rx="1" transform="rotate(-90 47.875 27.5312)"/>
<rect x="5.28125" y="7" width="2.4375" height="4.875" rx="1.21875"/>
<rect x="5.28125" y="15.125" width="2.4375" height="4.875" rx="1.21875"/>
<rect y="14.7188" width="2.4375" height="4.875" rx="1.21875" transform="rotate(-90 0 14.7188)"/>
<rect x="8.125" y="14.7188" width="2.4375" height="4.875" rx="1.21875" transform="rotate(-90 8.125 14.7188)"/>
<path d="M27.5269 0.241291C32.4506 1.67305 34.2996 7.81458 30.9661 11.7076C30.8794 11.8091 30.7967 11.9148 30.6843 12.0516C30.8401 12.29 30.9918 12.5298 31.1489 12.7655C32.0944 14.1895 33.0399 15.6127 33.9854 17.035C35.0148 18.59 34.5935 19.9581 32.8299 20.6693C33.1686 21.1799 33.5072 21.6852 33.835 22.1891C34.6477 23.4154 35.4605 24.6413 36.2732 25.8667C37.4842 27.6953 36.8367 29.4346 34.7358 30.0116C34.6735 30.0292 34.6125 30.0549 34.5123 30.0902L36.7662 33.4901C37.3731 34.4071 37.9853 35.3214 38.5881 36.2398C39.2112 37.188 39.2654 38.1822 38.7236 39.167C38.1817 40.1518 37.3257 40.6286 36.1797 40.6218C33.8445 40.6082 31.5092 40.6218 29.1008 40.6218V50.7308C29.1008 51.6722 28.7676 52 27.8127 52C26.2549 52 24.6972 52 23.1395 52C22.3633 52 21.9908 51.6275 21.9908 50.8486C21.9908 47.6492 21.9908 44.4493 21.9908 41.2489V40.6231H21.4273C19.26 40.6231 17.0928 40.6164 14.9255 40.6231C13.7728 40.6231 12.8855 40.1639 12.3518 39.1453C11.8181 38.1267 11.9008 37.1284 12.5374 36.1667C13.7863 34.2956 15.0307 32.4218 16.2706 30.5453C16.3627 30.4098 16.4521 30.2635 16.5658 30.0861C16.4182 30.0373 16.3017 29.9886 16.1784 29.9601C14.1155 29.7298 13.6441 27.6723 14.6288 26.1511C15.7125 24.4755 16.83 22.8216 17.9326 21.1583C18.0342 21.0052 18.1331 20.8494 18.2509 20.6666L17.9231 20.5243C16.6146 19.969 16.1419 18.5196 16.9153 17.3249C17.9813 15.6791 19.0718 14.0482 20.1662 12.4241C20.2611 12.2887 20.4101 12.0177 20.4101 12.0177C20.4101 12.0177 20.2583 11.8389 20.131 11.6981C18.3755 9.61749 17.9556 7.2538 18.874 4.7235C19.7924 2.1932 21.6197 0.638174 24.3044 0.0773903C24.8029 -0.0269101 26.4283 -0.0702557 27.5269 0.241291ZM18.5177 18.6307C19.1815 18.6307 19.6854 18.6063 20.1879 18.6307C20.8855 18.6727 21.3176 19.2321 21.1605 19.8836C21.0942 20.092 20.9929 20.2876 20.8611 20.462C19.4077 22.6686 16.1134 27.9608 16.1134 27.9608C16.1134 27.9608 18.0206 27.9486 18.5435 27.9852C19.4199 28.0461 19.8181 28.8399 19.3643 29.5944C19.1287 29.9859 18.8672 30.3611 18.6139 30.7417C17.1659 32.9252 15.7071 35.1033 14.2794 37.3018C14.1439 37.5199 14.0599 37.9249 14.1696 38.1226C14.2943 38.3475 14.6586 38.445 14.9268 38.5818C14.9946 38.6157 15.0934 38.5818 15.1788 38.5818H35.9034C36.0552 38.5895 36.2074 38.585 36.3585 38.5683C36.4854 38.5551 36.6068 38.5098 36.7112 38.4365C36.8156 38.3633 36.8996 38.2647 36.9552 38.1499C37.0108 38.0351 37.0362 37.9081 37.029 37.7808C37.0218 37.6534 36.9821 37.5301 36.9139 37.4223C36.8407 37.2869 36.7486 37.1663 36.6647 37.039C35.0473 34.6008 33.4291 32.1626 31.8099 29.7244C31.5594 29.3492 31.4347 28.9686 31.646 28.5392C31.8709 28.0827 32.2732 27.9581 32.7432 27.9608C33.1835 27.9608 34.9742 27.8457 34.9742 27.8457C34.9742 27.8457 31.6691 22.6171 30.2021 20.4254C29.9312 20.0191 29.7849 19.6127 30.0287 19.1495C30.2725 18.6862 30.6843 18.6076 31.1516 18.6076C31.5824 18.6158 32.0131 18.6076 32.5753 18.6076L25.5411 8.0435C24.7284 9.26259 23.9766 10.3991 23.2018 11.5653C23.9657 11.9934 24.7514 12.1315 25.5655 12.1735C25.8279 12.1865 26.0749 12.3011 26.2544 12.493C26.4338 12.6849 26.5316 12.9391 26.527 13.2017C26.5224 13.4644 26.4159 13.715 26.2298 13.9006C26.0438 14.0861 25.7929 14.192 25.5303 14.1959C25.1927 14.2141 24.8542 14.1904 24.5225 14.1254C23.6813 13.9141 22.851 13.6554 21.9773 13.4048L18.5177 18.6307ZM21.6129 10.2094C21.6439 10.1792 21.6724 10.1466 21.6982 10.1119C22.3457 9.14204 22.9905 8.16947 23.6407 7.20097C24.6715 5.66491 26.4324 5.67168 27.4659 7.21451C28.1283 8.20875 28.792 9.21112 29.4557 10.2094C30.9376 8.69504 31.1164 5.70555 29.2377 3.63579C27.405 1.61616 24.1987 1.47799 22.1615 3.32831C20.1649 5.14747 19.8913 8.34963 21.6129 10.2094ZM24.0308 49.933H27.0311V40.6597H24.0308V49.933Z"/>
</symbol><symbol id="icon-vk" viewBox="0 0 45 27"><g fill="none">
  <path fill-rule="evenodd" clip-rule="evenodd" d="M22.3539 25.5403H24.8496C24.8496 25.5403 25.5901 25.4584 25.9741 25.0488C26.3306 24.6665 26.3306 23.9564 26.3306 23.9564C26.3306 23.9564 26.2757 20.6247 27.839 20.1605C29.3474 19.6689 31.322 23.3556 33.3789 24.7757C34.9695 25.8407 36.1488 25.6223 36.1488 25.6223L41.7161 25.5403C41.7161 25.5403 44.6232 25.3492 43.2519 23.0825C43.1148 22.8914 42.4292 21.4167 39.1107 18.3308C35.6277 15.1083 36.0939 15.6272 40.29 10.0562C42.8405 6.66984 43.8553 4.59435 43.5536 3.72047C43.2519 2.87389 41.3596 3.09236 41.3596 3.09236L35.1066 3.11967C35.1066 3.11967 34.6404 3.06505 34.3113 3.25621C33.9548 3.47469 33.7354 3.93894 33.7354 3.93894C33.7354 3.93894 32.7481 6.5606 31.4317 8.79994C28.6617 13.4971 27.5373 13.7429 27.0711 13.4698C26.0289 12.7871 26.2757 10.7116 26.2757 9.26419C26.2757 4.70359 26.9888 2.79196 24.9319 2.3004C24.2463 2.13654 23.7526 2.02731 22.0248 2C19.776 2 17.8836 2.02731 16.814 2.54618C16.101 2.87389 15.5525 3.66585 15.909 3.69316C16.3204 3.74778 17.2528 3.96625 17.7465 4.62166C18.3773 5.49555 18.3499 7.43449 18.3499 7.43449C18.3499 7.43449 18.7338 12.8144 17.4997 13.4971C16.6495 13.934 15.4976 13.0055 13.0294 8.74532C11.7404 6.5606 10.7805 4.1301 10.7805 4.1301C10.7805 4.1301 10.5885 3.66585 10.2594 3.44738C9.87548 3.14698 9.29955 3.03774 9.29955 3.03774L3.37571 3.09236C3.37571 3.09236 2.47068 3.11967 2.14158 3.50199C1.8399 3.8297 2.11415 4.53974 2.11415 4.53974C2.11415 4.53974 6.77643 15.4087 12.0421 20.8705C16.8689 25.8681 22.3539 25.5403 22.3539 25.5403Z" stroke-width="2.5"/>
</g></symbol><symbol id="icon-ytb" viewBox="0 0 36 27"><g fill="none">
  <path d="M33.542 5.60451C33.365 4.89762 33.0047 4.24995 32.4973 3.7269C31.99 3.20385 31.3536 2.82395 30.6524 2.62558C28.0905 2 17.843 2 17.843 2C17.843 2 7.59546 2 5.03358 2.68515C4.33241 2.88353 3.696 3.26343 3.18865 3.78648C2.68129 4.30953 2.32095 4.9572 2.14401 5.66409C1.67515 8.26404 1.44581 10.9015 1.45886 13.5434C1.44215 16.2051 1.67151 18.8627 2.14401 21.4822C2.33907 22.1672 2.70749 22.7902 3.21367 23.2912C3.71984 23.7921 4.34667 24.1541 5.03358 24.342C7.59546 25.0272 17.843 25.0272 17.843 25.0272C17.843 25.0272 28.0905 25.0272 30.6524 24.342C31.3536 24.1436 31.99 23.7637 32.4973 23.2407C33.0047 22.7176 33.365 22.07 33.542 21.3631C34.0072 18.7827 34.2366 16.1653 34.2271 13.5434C34.2438 10.8816 34.0145 8.22403 33.542 5.60451V5.60451Z" stroke-width="2.5" stroke-linecap="round" stroke-linejoin="round"/>
  <path d="M14.4918 18.414L23.0562 13.5434L14.4918 8.67285V18.414Z" stroke-width="2.5" stroke-linecap="round" stroke-linejoin="round"/>
</g></symbol></svg>